<svg width="16" height="17" viewBox="0 0 16 17" fill="none" xmlns="http://www.w3.org/2000/svg">
<g clip-path="url(#clip0_361_1111)">
<path d="M2.6665 8.33236C2.39036 8.33236 2.1665 8.55622 2.1665 8.83236C2.1665 9.1085 2.39036 9.33236 2.6665 9.33236L2.6665 8.33236ZM13.3332 9.33236C13.6093 9.33236 13.8332 9.1085 13.8332 8.83236C13.8332 8.55621 13.6093 8.33236 13.3332 8.33236L13.3332 9.33236ZM11.0185 5.1439C10.8223 4.94951 10.5058 4.95092 10.3114 5.14705C10.117 5.34318 10.1184 5.65976 10.3145 5.85415L11.0185 5.1439ZM11.8418 6.6639L11.4898 7.01902L11.4898 7.01902L11.8418 6.6639ZM11.8418 11.0008L12.1938 11.3559L12.1938 11.3559L11.8418 11.0008ZM10.3145 11.8106C10.1184 12.005 10.117 12.3215 10.3114 12.5177C10.5058 12.7138 10.8223 12.7152 11.0185 12.5208L10.3145 11.8106ZM13.3199 8.62347L13.8159 8.56025L13.8159 8.56025L13.3199 8.62347ZM13.3199 9.04125L13.8159 9.10446L13.8159 9.10446L13.3199 9.04125ZM2.6665 9.33236L13.3332 9.33236L13.3332 8.33236L2.6665 8.33236L2.6665 9.33236ZM10.3145 5.85415L11.4898 7.01902L12.1938 6.30877L11.0185 5.1439L10.3145 5.85415ZM11.4898 10.6457L10.3145 11.8106L11.0185 12.5208L12.1938 11.3559L11.4898 10.6457ZM11.4898 7.01902C11.9668 7.49178 12.294 7.81714 12.5154 8.09283C12.7305 8.36062 12.8043 8.53263 12.8239 8.68669L13.8159 8.56025C13.7634 8.14817 13.5668 7.80488 13.2951 7.46666C13.0298 7.13633 12.6541 6.76497 12.1938 6.30877L11.4898 7.01902ZM12.1938 11.3559C12.6541 10.8997 13.0298 10.5284 13.2951 10.1981C13.5668 9.85983 13.7634 9.51654 13.8159 9.10446L12.8239 8.97803C12.8043 9.13208 12.7305 9.30409 12.5154 9.57189C12.294 9.84757 11.9668 10.1729 11.4898 10.6457L12.1938 11.3559ZM12.8239 8.68669C12.8363 8.78342 12.8363 8.88129 12.8239 8.97803L13.8159 9.10446C13.8389 8.92378 13.8389 8.74093 13.8159 8.56025L12.8239 8.68669Z" fill="black"/>
</g>
<defs>
<clipPath id="clip0_361_1111">
<rect width="16" height="16" fill="white" transform="translate(0 0.832031)"/>
</clipPath>
</defs>
</svg>
